#!OML:ASF F:\VICON\USERDATA\INSTALL\rory3\rory3.ASF
:FULLY-SPECIFIED
:DEGREES
69
root -6.58148899410693 17.965616176058003 -0.40596366274421225 -185.58176116765412 18.555199065438174 -189.10150172704283
lfemur -17.987429677797657 -11.685636441933045 -21.943610480126665
ltibia 20.39866831657396
lfoot 16.992644998187107 -43.707827477205385
ltoes 35.84711365826344
rfemur 10.206177235989568 -4.598572994810775 7.586228353304081
rtibia 32.93354549021298
rfoot 16.364303640922554 -30.208482232825027
rtoes 17.892881897105113
lowerback -5.073731668121606 7.810130520404371 13.366209861945887
upperback -3.8955936308208234 13.4381176067756 13.14126992131316
thorax -2.4389376143225947 8.046613938659267 8.635466868732031
lowerneck -2.4641442225450323 -25.61809944435478 -3.540014816707028
upperneck 21.671579187501404 -33.483918330285576 0.49655818698883714
head 6.54514208095201 -15.651673318842269 -1.916597220177461
lclavicle -6.97298695149835e-15 -5.15720839076249e-15
lhumerus 25.49341127499742 -7.208367577503996 85.47863140665143
lradius 40.106630102203184
lwrist 56.74819530019627
lhand -15.217717040456176 34.3658181550424
lfingers 7.125020000000003
lthumb -169.04940848520943 460.41973724518226
rclavicle -6.972986951498349e-15 -5.15720839076249e-15
rhumerus 62.28463985046187 53.13475229290897 -69.79918184411395
rradius 27.907812508220402
rwrist -4.322627294119098
rhand -2.7308701024004733 4.8178826962822825
rfingers 7.125020000000003
rthumb 22.927148735052484 -23.337179182465036
70
root -6.5525451993584705 17.969207709512204 -0.5921222647295015 -185.72234146202908 14.782342792724306 -189.60079710125189
lfemur -19.31998345813048 -13.232214128734853 -21.307664867707835
ltibia 21.057514510628156
lfoot 19.173379510759773 -44.31011549888915
ltoes 38.74898977699551
rfemur 10.642002180183319 -4.865203492876144 8.955239091693318
rtibia 31.939504691028873
rfoot 17.92355765290545 -31.6683195497277
rtoes 20.846777534764712
lowerback -4.665081257160331 8.756330789603998 14.64954732188623
upperback -5.14952804718064 15.02277214427634 12.254943603257939
thorax -3.6204728227247864 8.760684572046705 6.751468661660519
lowerneck -3.2635302754470095 -25.113502490825983 -2.5718190912880856
upperneck 18.32093799787361 -34.90778386168323 2.5979210464868734
head 5.866216766232885 -16.660597960732083 -1.5926435316562193
lclavicle -7.478781277045292e-15 -5.520140626994533e-15
lhumerus 29.342377897696174 -2.706807594146248 82.70112122857046
lradius 44.92058622193055
lwrist 53.50745472699102
lhand -17.503616752845375 28.036752531811274
lfingers 7.125020000000003
lthumb -171.25519395712888 463.16270019526996
rclavicle -7.478781277045292e-15 -5.520140626994532e-15
rhumerus 72.52493932513815 51.95391736055608 -65.21954974572967
rradius 31.287715897650074
rwrist -0.07939733550704275
rhand -5.835241868593869 8.610954570831662
rfingers 7.125020000000003
rthumb 19.94434349604191 -19.87756543111145
71
root -6.510062066984652 17.981445042067385 -0.7817513929866096 -184.67215888785677 11.066220000806862 -189.22417215498322
lfemur -20.652880287159896 -14.58130900469645 -20.75389728967068
ltibia 21.255975595597093
lfoot 22.08046239183907 -44.7441122994146
ltoes 41.806354298653844
rfemur 10.892980053269628 -5.068924647095147 10.665035213660081
rtibia 30.869209249067637
rfoot 19.17717470680493 -33.63921511024413
rtoes 23.622557228047135
lowerback -4.401046180657775 9.618442957699164 15.653025994496078
upperback -6.390671336664139 16.297390481778912 11.030834833250236
thorax -4.536543174403278 9.20149921838662 4.734572819992418
lowerneck -4.1725828385134545 -24.442625132884295 -1.8124938760169784
upperneck 15.032411856311839 -35.91212757447734 4.528496425575662
head 5.309631043236894 -17.512037460404024 -1.2682528858979962
lclavicle -7.806087229311029e-15 -5.740429562277598e-15
lhumerus 34.125228485702735 1.721629509298758 80.30606140847996
lradius 49.23566120470717
lwrist 49.90251156878781
lhand -19.31933290939952 23.548070348855155
lfingers 7.125020000000003
lthumb -173.00473650439284 450.7334848624022
rclavicle -7.806087229311029e-15 -5.740429562277598e-15
rhumerus 82.10011288219263 49.68789329052529 -61.65098069053133
rradius 34.316519312273684
rwrist 2.1840733930247005
rhand -9.575097557425075 11.535484800581283
rfingers 7.125020000000003
rthumb 16.352519368944513 -17.291513552750526
72
root -6.45953491291373 17.995261743353748 -0.9850648443030638 -183.6043116204057 6.837636516011074 -188.78658288815546
lfemur -21.997300255120308 -16.04790288016111 -20.129782219616146
ltibia 21.585652015343676
lfoot 25.66242552976308 -45.412042258564526
ltoes 45.48530850552261
rfemur 11.601764781373237 -5.430652765661756 12.477056950340472
rtibia 29.459972144908775
rfoot 20.5972229190777 -35.51236814854282
rtoes 25.630203012517683
lowerback -4.506831643317611 10.311847985655739 16.443307612397458
upperback -7.7731984124315066 17.433121942093926 9.751559244865637
thorax -5.427213232435614 9.607664142076269 2.7813039841614513
lowerneck -5.007317574747369 -24.145279039885207 -1.3726040856523787
upperneck 12.077736087807718 -36.55713060864889 6.04588795640515
head 4.787327567711978 -18.063166629082637 -0.9717106899190758
lclavicle -8.130351376332783e-15 -5.948975118334433e-15
lhumerus 39.04380140723836 6.6938475725647635 78.58489214561158
lradius 53.14878603459988
lwrist 46.09487357791154
lhand -20.775421133862437 20.377413203603112
lfingers 7.125020000000003
lthumb -174.4064465149804 450.8100302137431
rclavicle -8.130351376332783e-15 -5.948975118334433e-15
rhumerus 91.36099656303195 47.2063062821946 -58.22937514009591
rradius 36.73559703170447
rwrist 3.5239235907324407
rhand -13.16132269874399 13.721401235215716
rfingers 7.125020000000003
rthumb 12.905746390444865 -15.369363953385859
73
root -6.390265466222803 18.007881956040485 -1.157192932847297 -182.01825664794654 3.3928481973492204 -187.73000915440593
lfemur -23.063599809669572 -17.252901530936864 -19.326867059020795
ltibia 22.38089395128166
lfoot 29.189377647989794 -45.86032252658954
ltoes 49.2456478149756
rfemur 12.721834351603327 -5.959519743753654 14.394397304605855
rtibia 27.928120842967356
rfoot 21.996956502669022 -37.04035734456898
rtoes 27.30421490151315
lowerback -4.722126661976203 10.786181679712346 16.998768115688687
upperback -9.095624038220894 18.46975127689841 8.589119978885622
thorax -6.245033974165931 10.065324558597846 1.1585510555971432
lowerneck -5.648197962095963 -24.096085299021727 -1.1469976371211081
upperneck 9.78514717348831 -36.41557346275742 7.103449121220778
head 4.4177088238980735 -18.02024511079302 -0.6946212219511966
lclavicle -7.696006398364568e-15 -5.6281645716624e-15
lhumerus 44.095670815538085 11.08952825816057 77.45228816865519
lradius 56.75631865433489
lwrist 42.66975931871251
lhand -21.30630848314208 18.34325653868698
lfingers 7.125020000000003
lthumb -174.91842170414148 438.6613033155659
rclavicle -7.696006398364568e-15 -5.6281645716624e-15
rhumerus 99.49922139083738 44.842842353735435 -54.96734923137571
rradius 39.49895939154241
rwrist 4.293253358909514
rhand -16.541485684150818 15.516366688875708
rfingers 7.125020000000003
rthumb 9.651424131161491 -13.750775273145022
